<svg id="visual" viewBox="0 0 1500 1500" width="1500" height="1500" xmlns="http://www.w3.org/2000/svg" xmlns:xlink="http://www.w3.org/1999/xlink" version="1.1"><path d="M0 331L188 211L375 226L563 286L750 151L938 271L1125 286L1313 166L1500 466L1500 0L1313 0L1125 0L938 0L750 0L563 0L375 0L188 0L0 0Z" fill="#71c5ac"></path><path d="M0 511L188 481L375 496L563 376L750 391L938 481L1125 556L1313 286L1500 586L1500 464L1313 164L1125 284L938 269L750 149L563 284L375 224L188 209L0 329Z" fill="#64bba3"></path><path d="M0 796L188 646L375 721L563 541L750 601L938 676L1125 751L1313 571L1500 946L1500 584L1313 284L1125 554L938 479L750 389L563 374L375 494L188 479L0 509Z" fill="#56b09b"></path><path d="M0 916L188 766L375 811L563 676L750 766L938 856L1125 856L1313 676L1500 1006L1500 944L1313 569L1125 749L938 674L750 599L563 539L375 719L188 644L0 794Z" fill="#48a692"></path><path d="M0 1261L188 1306L375 1291L563 1156L750 1231L938 1336L1125 1321L1313 1201L1500 1231L1500 1004L1313 674L1125 854L938 854L750 764L563 674L375 809L188 764L0 914Z" fill="#399c8a"></path><path d="M0 1396L188 1426L375 1381L563 1291L750 1396L938 1426L1125 1396L1313 1351L1500 1396L1500 1229L1313 1199L1125 1319L938 1334L750 1229L563 1154L375 1289L188 1304L0 1259Z" fill="#289182"></path><path d="M0 1501L188 1501L375 1501L563 1501L750 1501L938 1501L1125 1501L1313 1501L1500 1501L1500 1394L1313 1349L1125 1394L938 1424L750 1394L563 1289L375 1379L188 1424L0 1394Z" fill="#10877a"></path></svg>