<svg id="visual" viewBox="0 0 2000 2000" width="2000" height="2000" xmlns="http://www.w3.org/2000/svg" xmlns:xlink="http://www.w3.org/1999/xlink" version="1.1"><path d="M0 541L27.8 537.7C55.7 534.3 111.3 527.7 166.8 557.7C222.3 587.7 277.7 654.3 333.2 661C388.7 667.7 444.3 614.3 500 547.7C555.7 481 611.3 401 666.8 367.7C722.3 334.3 777.7 347.7 833.2 354.3C888.7 361 944.3 361 1000 364.3C1055.7 367.7 1111.3 374.3 1166.8 374.3C1222.3 374.3 1277.7 367.7 1333.2 414.3C1388.7 461 1444.3 561 1500 587.7C1555.7 614.3 1611.3 567.7 1666.8 567.7C1722.3 567.7 1777.7 614.3 1833.2 581C1888.7 547.7 1944.3 434.3 1972.2 377.7L2000 321L2000 0L1972.2 0C1944.3 0 1888.7 0 1833.2 0C1777.7 0 1722.3 0 1666.8 0C1611.3 0 1555.7 0 1500 0C1444.3 0 1388.7 0 1333.2 0C1277.7 0 1222.3 0 1166.8 0C1111.3 0 1055.7 0 1000 0C944.3 0 888.7 0 833.2 0C777.7 0 722.3 0 666.8 0C611.3 0 555.7 0 500 0C444.3 0 388.7 0 333.2 0C277.7 0 222.3 0 166.8 0C111.3 0 55.7 0 27.8 0L0 0Z" fill="#1ead73"></path><path d="M0 921L27.8 907.7C55.7 894.3 111.3 867.7 166.8 884.3C222.3 901 277.7 961 333.2 977.7C388.7 994.3 444.3 967.7 500 961C555.7 954.3 611.3 967.7 666.8 967.7C722.3 967.7 777.7 954.3 833.2 964.3C888.7 974.3 944.3 1007.7 1000 1004.3C1055.7 1001 1111.3 961 1166.8 924.3C1222.3 887.7 1277.7 854.3 1333.2 887.7C1388.7 921 1444.3 1021 1500 1047.7C1555.7 1074.3 1611.3 1027.7 1666.8 1001C1722.3 974.3 1777.7 967.7 1833.2 971C1888.7 974.3 1944.3 987.7 1972.2 994.3L2000 1001L2000 319L1972.2 375.7C1944.3 432.3 1888.7 545.7 1833.2 579C1777.7 612.3 1722.3 565.7 1666.8 565.7C1611.3 565.7 1555.7 612.3 1500 585.7C1444.3 559 1388.7 459 1333.2 412.3C1277.7 365.7 1222.3 372.3 1166.8 372.3C1111.3 372.3 1055.7 365.7 1000 362.3C944.3 359 888.7 359 833.2 352.3C777.7 345.7 722.3 332.3 666.8 365.7C611.3 399 555.7 479 500 545.7C444.3 612.3 388.7 665.7 333.2 659C277.7 652.3 222.3 585.7 166.8 555.7C111.3 525.7 55.7 532.3 27.8 535.7L0 539Z" fill="#1cce8f"></path><path d="M0 1081L27.8 1057.7C55.7 1034.3 111.3 987.7 166.8 1004.3C222.3 1021 277.7 1101 333.2 1131C388.7 1161 444.3 1141 500 1131C555.7 1121 611.3 1121 666.8 1117.7C722.3 1114.3 777.7 1107.7 833.2 1127.7C888.7 1147.7 944.3 1194.3 1000 1197.7C1055.7 1201 1111.3 1161 1166.8 1114.3C1222.3 1067.7 1277.7 1014.3 1333.2 1044.3C1388.7 1074.3 1444.3 1187.7 1500 1207.7C1555.7 1227.7 1611.3 1154.3 1666.8 1111C1722.3 1067.7 1777.7 1054.3 1833.2 1057.7C1888.7 1061 1944.3 1081 1972.2 1091L2000 1101L2000 999L1972.2 992.3C1944.3 985.7 1888.7 972.3 1833.2 969C1777.7 965.7 1722.3 972.3 1666.8 999C1611.3 1025.7 1555.7 1072.3 1500 1045.7C1444.3 1019 1388.7 919 1333.2 885.7C1277.7 852.3 1222.3 885.7 1166.8 922.3C1111.3 959 1055.7 999 1000 1002.3C944.3 1005.7 888.7 972.3 833.2 962.3C777.7 952.3 722.3 965.7 666.8 965.7C611.3 965.7 555.7 952.3 500 959C444.3 965.7 388.7 992.3 333.2 975.7C277.7 959 222.3 899 166.8 882.3C111.3 865.7 55.7 892.3 27.8 905.7L0 919Z" fill="#0ff1ad"></path><path d="M0 1201L27.8 1191C55.7 1181 111.3 1161 166.8 1184.3C222.3 1207.7 277.7 1274.3 333.2 1284.3C388.7 1294.3 444.3 1247.7 500 1247.7C555.7 1247.7 611.3 1294.3 666.8 1317.7C722.3 1341 777.7 1341 833.2 1364.3C888.7 1387.7 944.3 1434.3 1000 1411C1055.7 1387.7 1111.3 1294.3 1166.8 1234.3C1222.3 1174.3 1277.7 1147.7 1333.2 1177.7C1388.7 1207.7 1444.3 1294.3 1500 1304.3C1555.7 1314.3 1611.3 1247.7 1666.8 1217.7C1722.3 1187.7 1777.7 1194.3 1833.2 1224.3C1888.7 1254.3 1944.3 1307.7 1972.2 1334.3L2000 1361L2000 1099L1972.2 1089C1944.3 1079 1888.7 1059 1833.2 1055.7C1777.7 1052.3 1722.3 1065.7 1666.8 1109C1611.3 1152.3 1555.7 1225.7 1500 1205.7C1444.3 1185.7 1388.7 1072.3 1333.2 1042.3C1277.7 1012.3 1222.3 1065.7 1166.8 1112.3C1111.3 1159 1055.7 1199 1000 1195.7C944.3 1192.3 888.7 1145.7 833.2 1125.7C777.7 1105.7 722.3 1112.3 666.8 1115.7C611.3 1119 555.7 1119 500 1129C444.3 1139 388.7 1159 333.2 1129C277.7 1099 222.3 1019 166.8 1002.3C111.3 985.7 55.7 1032.3 27.8 1055.7L0 1079Z" fill="#00ffb9"></path><path d="M0 1321L27.8 1334.3C55.7 1347.7 111.3 1374.3 166.8 1397.7C222.3 1421 277.7 1441 333.2 1464.3C388.7 1487.7 444.3 1514.3 500 1521C555.7 1527.7 611.3 1514.3 666.8 1524.3C722.3 1534.3 777.7 1567.7 833.2 1604.3C888.7 1641 944.3 1681 1000 1671C1055.7 1661 1111.3 1601 1166.8 1547.7C1222.3 1494.3 1277.7 1447.7 1333.2 1457.7C1388.7 1467.7 1444.3 1534.3 1500 1541C1555.7 1547.7 1611.3 1494.3 1666.8 1471C1722.3 1447.7 1777.7 1454.3 1833.2 1471C1888.7 1487.7 1944.3 1514.3 1972.2 1527.7L2000 1541L2000 1359L1972.2 1332.3C1944.3 1305.7 1888.7 1252.3 1833.2 1222.3C1777.7 1192.3 1722.3 1185.7 1666.8 1215.7C1611.3 1245.7 1555.7 1312.3 1500 1302.3C1444.3 1292.3 1388.7 1205.7 1333.2 1175.7C1277.7 1145.7 1222.3 1172.3 1166.8 1232.3C1111.3 1292.3 1055.7 1385.7 1000 1409C944.3 1432.3 888.7 1385.7 833.2 1362.3C777.7 1339 722.3 1339 666.8 1315.7C611.3 1292.3 555.7 1245.7 500 1245.7C444.3 1245.7 388.7 1292.3 333.2 1282.3C277.7 1272.3 222.3 1205.7 166.8 1182.3C111.3 1159 55.7 1179 27.8 1189L0 1199Z" fill="#0ff1ad"></path><path d="M0 1501L27.8 1517.7C55.7 1534.3 111.3 1567.7 166.8 1597.7C222.3 1627.7 277.7 1654.3 333.2 1677.7C388.7 1701 444.3 1721 500 1727.7C555.7 1734.3 611.3 1727.7 666.8 1751C722.3 1774.3 777.7 1827.7 833.2 1841C888.7 1854.3 944.3 1827.7 1000 1791C1055.7 1754.3 1111.3 1707.7 1166.8 1681C1222.3 1654.3 1277.7 1647.7 1333.2 1667.7C1388.7 1687.7 1444.3 1734.3 1500 1721C1555.7 1707.7 1611.3 1634.3 1666.8 1614.3C1722.3 1594.3 1777.7 1627.7 1833.2 1644.3C1888.7 1661 1944.3 1661 1972.2 1661L2000 1661L2000 1539L1972.2 1525.7C1944.3 1512.3 1888.7 1485.7 1833.2 1469C1777.7 1452.3 1722.3 1445.7 1666.8 1469C1611.3 1492.3 1555.7 1545.7 1500 1539C1444.3 1532.3 1388.7 1465.7 1333.2 1455.7C1277.7 1445.7 1222.3 1492.3 1166.8 1545.7C1111.3 1599 1055.7 1659 1000 1669C944.3 1679 888.7 1639 833.2 1602.3C777.7 1565.7 722.3 1532.3 666.8 1522.3C611.3 1512.3 555.7 1525.7 500 1519C444.3 1512.3 388.7 1485.7 333.2 1462.3C277.7 1439 222.3 1419 166.8 1395.7C111.3 1372.3 55.7 1345.7 27.8 1332.3L0 1319Z" fill="#1cce8f"></path><path d="M0 2001L27.8 2001C55.7 2001 111.3 2001 166.8 2001C222.3 2001 277.7 2001 333.2 2001C388.7 2001 444.3 2001 500 2001C555.7 2001 611.3 2001 666.8 2001C722.3 2001 777.7 2001 833.2 2001C888.7 2001 944.3 2001 1000 2001C1055.7 2001 1111.3 2001 1166.8 2001C1222.3 2001 1277.7 2001 1333.2 2001C1388.7 2001 1444.3 2001 1500 2001C1555.7 2001 1611.3 2001 1666.8 2001C1722.3 2001 1777.7 2001 1833.2 2001C1888.7 2001 1944.3 2001 1972.2 2001L2000 2001L2000 1659L1972.2 1659C1944.3 1659 1888.7 1659 1833.2 1642.3C1777.7 1625.7 1722.3 1592.3 1666.8 1612.3C1611.3 1632.3 1555.7 1705.7 1500 1719C1444.3 1732.3 1388.7 1685.7 1333.2 1665.7C1277.7 1645.7 1222.3 1652.3 1166.8 1679C1111.3 1705.7 1055.7 1752.3 1000 1789C944.3 1825.7 888.7 1852.3 833.2 1839C777.7 1825.7 722.3 1772.3 666.8 1749C611.3 1725.7 555.7 1732.3 500 1725.7C444.3 1719 388.7 1699 333.2 1675.7C277.7 1652.3 222.3 1625.7 166.8 1595.7C111.3 1565.7 55.7 1532.3 27.8 1515.7L0 1499Z" fill="#1ead73"></path></svg>