<svg id="visual" viewBox="0 0 1500 360" width="1500" height="360" xmlns="http://www.w3.org/2000/svg" xmlns:xlink="http://www.w3.org/1999/xlink" version="1.1"><rect x="0" y="0" width="1500" height="360" fill="#e1e3e5"></rect><path d="M0 92L16.7 85.2C33.3 78.3 66.7 64.7 100 56.8C133.3 49 166.7 47 200 55.3C233.3 63.7 266.7 82.3 300 82.7C333.3 83 366.7 65 400 65.3C433.3 65.7 466.7 84.3 500 83.5C533.3 82.7 566.7 62.3 600 61.8C633.3 61.3 666.7 80.7 700 90.2C733.3 99.7 766.7 99.3 800 92.5C833.3 85.7 866.7 72.3 900 62.3C933.3 52.3 966.7 45.7 1000 45.7C1033.3 45.7 1066.7 52.3 1100 58C1133.3 63.7 1166.7 68.3 1200 69.2C1233.3 70 1266.7 67 1300 61.7C1333.3 56.3 1366.7 48.7 1400 54.3C1433.3 60 1466.7 79 1483.3 88.5L1500 98L1500 0L1483.3 0C1466.7 0 1433.3 0 1400 0C1366.7 0 1333.3 0 1300 0C1266.7 0 1233.3 0 1200 0C1166.7 0 1133.3 0 1100 0C1066.7 0 1033.3 0 1000 0C966.7 0 933.3 0 900 0C866.7 0 833.3 0 800 0C766.7 0 733.3 0 700 0C666.7 0 633.3 0 600 0C566.7 0 533.3 0 500 0C466.7 0 433.3 0 400 0C366.7 0 333.3 0 300 0C266.7 0 233.3 0 200 0C166.7 0 133.3 0 100 0C66.7 0 33.3 0 16.7 0L0 0Z" fill="#4dcd59" stroke-linecap="round" stroke-linejoin="miter"></path></svg>